<?xml version="1.0" standalone="no"?>
 <!DOCTYPE svg PUBLIC "-//W3C//DTD SVG 1.1//EN" 
 "http://www.w3.org/Graphics/SVG/1.1/DTD/svg11.dtd"> 
<svg xmlns="http://www.w3.org/2000/svg" version="1.1" 
    width="29.7002cm" height="21.0007cm" viewBox="0 0 116930 82680 ">
<title>SVG Picture created as espAntena-F.Cu.svg date 2018/05/08 09:32:43 </title>
  <desc>Picture generated by PCBNEW </desc>
<g style="fill:#000000; fill-opacity:1;stroke:#000000; stroke-opacity:1;
stroke-linecap:round; stroke-linejoin:round; "
 transform="translate(0 0) scale(1 1)">
</g>
<g style="fill:#000000; fill-opacity:0.0; 
stroke:#000000; stroke-width:-0.000393701; stroke-opacity:1; 
stroke-linecap:round; stroke-linejoin:round;">
</g>
<g style="fill:#000000; fill-opacity:0.0; 
stroke:#000000; stroke-width:0; stroke-opacity:1; 
stroke-linecap:round; stroke-linejoin:round;">
</g>
<g style="fill:#000000; fill-opacity:1.0; 
stroke:#000000; stroke-width:0; stroke-opacity:1; 
stroke-linecap:round; stroke-linejoin:round;">
<polyline style="fill-rule:evenodd;"
points="85460,39400
85460,38600
86140,38600
86140,39400
85460,39400
" /> 
</g>
<g style="fill:#000000; fill-opacity:1.0; 
stroke:#000000; stroke-width:680; stroke-opacity:1; 
stroke-linecap:round; stroke-linejoin:round;">
</g>
<g style="fill:#000000; fill-opacity:0.0; 
stroke:#000000; stroke-width:680; stroke-opacity:1; 
stroke-linecap:round; stroke-linejoin:round;">
<path d="M86800 38940
L86800 39060
" />
<path d="M87800 38940
L87800 39060
" />
<path d="M88800 38940
L88800 39060
" />
</g>
<g style="fill:#000000; fill-opacity:0.0; 
stroke:#000000; stroke-width:0; stroke-opacity:1; 
stroke-linecap:round; stroke-linejoin:round;">
</g>
<g style="fill:#000000; fill-opacity:1.0; 
stroke:#000000; stroke-width:0; stroke-opacity:1; 
stroke-linecap:round; stroke-linejoin:round;">
<polyline style="fill-rule:evenodd;"
points="91495,30895
90904,30895
90904,30304
91495,30304
91495,30895
" /> 
</g>
<g style="fill:#000000; fill-opacity:1.0; 
stroke:#000000; stroke-width:590.551; stroke-opacity:1; 
stroke-linecap:round; stroke-linejoin:round;">
</g>
<g style="fill:#000000; fill-opacity:0.0; 
stroke:#000000; stroke-width:590.551; stroke-opacity:1; 
stroke-linecap:round; stroke-linejoin:round;">
<path d="M91200 29600
L91200 29600
" />
</g>
<g style="fill:#000000; fill-opacity:0.0; 
stroke:#000000; stroke-width:0; stroke-opacity:1; 
stroke-linecap:round; stroke-linejoin:round;">
</g>
<g style="fill:#000000; fill-opacity:1.0; 
stroke:#000000; stroke-width:0; stroke-opacity:1; 
stroke-linecap:round; stroke-linejoin:round;">
<polyline style="fill-rule:evenodd;"
points="87050,37800
87050,37000
87650,37000
87650,37800
87050,37800
" /> 
<polyline style="fill-rule:evenodd;"
points="88350,37800
88350,37000
88950,37000
88950,37800
88350,37800
" /> 
<polyline style="fill-rule:evenodd;"
points="83714,37787
83085,37787
83085,37393
83714,37393
83714,37787
" /> 
<polyline style="fill-rule:evenodd;"
points="83714,36606
83085,36606
83085,36212
83714,36212
83714,36606
" /> 
<polyline style="fill-rule:evenodd;"
points="84714,37787
84085,37787
84085,37393
84714,37393
84714,37787
" /> 
<polyline style="fill-rule:evenodd;"
points="84714,36606
84085,36606
84085,36212
84714,36212
84714,36606
" /> 
<polyline style="fill-rule:evenodd;"
points="76260,36900
76260,36100
76940,36100
76940,36900
76260,36900
" /> 
</g>
<g style="fill:#000000; fill-opacity:1.0; 
stroke:#000000; stroke-width:680; stroke-opacity:1; 
stroke-linecap:round; stroke-linejoin:round;">
</g>
<g style="fill:#000000; fill-opacity:0.0; 
stroke:#000000; stroke-width:680; stroke-opacity:1; 
stroke-linecap:round; stroke-linejoin:round;">
<path d="M77600 36440
L77600 36560
" />
<path d="M78600 36440
L78600 36560
" />
<path d="M79600 36440
L79600 36560
" />
</g>
<g style="fill:#000000; fill-opacity:0.0; 
stroke:#000000; stroke-width:0; stroke-opacity:1; 
stroke-linecap:round; stroke-linejoin:round;">
</g>
<g style="fill:#000000; fill-opacity:1.0; 
stroke:#000000; stroke-width:0; stroke-opacity:1; 
stroke-linecap:round; stroke-linejoin:round;">
<polyline style="fill-rule:evenodd;"
points="86065,36251
86734,36251
86734,36606
86065,36606
86065,36251
" /> 
<polyline style="fill-rule:evenodd;"
points="86065,37393
86734,37393
86734,37748
86065,37748
86065,37393
" /> 
<polyline style="fill-rule:evenodd;"
points="85065,36251
85734,36251
85734,36606
85065,36606
85065,36251
" /> 
<polyline style="fill-rule:evenodd;"
points="85065,37393
85734,37393
85734,37748
85065,37748
85065,37393
" /> 
<polyline style="fill-rule:evenodd;"
points="91534,33348
90865,33348
90865,32993
91534,32993
91534,33348
" /> 
<polyline style="fill-rule:evenodd;"
points="91534,32206
90865,32206
90865,31851
91534,31851
91534,32206
" /> 
<polyline style="fill-rule:evenodd;"
points="90934,37648
90265,37648
90265,37293
90934,37293
90934,37648
" /> 
<polyline style="fill-rule:evenodd;"
points="90934,36506
90265,36506
90265,36151
90934,36151
90934,36506
" /> 
<polyline style="fill-rule:evenodd;"
points="89934,37648
89265,37648
89265,37293
89934,37293
89934,37648
" /> 
<polyline style="fill-rule:evenodd;"
points="89934,36506
89265,36506
89265,36151
89934,36151
89934,36506
" /> 
<polyline style="fill-rule:evenodd;"
points="74632,29716
74632,29283
75616,29283
75616,29716
74632,29716
" /> 
</g>
<g style="fill:#000000; fill-opacity:1.0; 
stroke:#000000; stroke-width:433.071; stroke-opacity:1; 
stroke-linecap:round; stroke-linejoin:round;">
</g>
<g style="fill:#000000; fill-opacity:0.0; 
stroke:#000000; stroke-width:433.071; stroke-opacity:1; 
stroke-linecap:round; stroke-linejoin:round;">
<path d="M74848 30287
L75400 30287
" />
<path d="M74848 31074
L75400 31074
" />
<path d="M74848 31862
L75400 31862
" />
<path d="M74848 32649
L75400 32649
" />
<path d="M74848 33437
L75400 33437
" />
<path d="M74848 34224
L75400 34224
" />
<path d="M74848 35011
L75400 35011
" />
<path d="M80911 35011
L81462 35011
" />
<path d="M80872 34224
L81423 34224
" />
<path d="M80911 33437
L81462 33437
" />
<path d="M80911 32649
L81462 32649
" />
<path d="M80911 31862
L81462 31862
" />
<path d="M80911 31074
L81462 31074
" />
<path d="M80911 30287
L81462 30287
" />
<path d="M80911 29500
L81462 29500
" />
</g>
<g style="fill:#000000; fill-opacity:0.0; 
stroke:#000000; stroke-width:0; stroke-opacity:1; 
stroke-linecap:round; stroke-linejoin:round;">
</g>
<g style="fill:#000000; fill-opacity:1.0; 
stroke:#000000; stroke-width:0; stroke-opacity:1; 
stroke-linecap:round; stroke-linejoin:round;">
<polyline style="fill-rule:evenodd;"
points="83232,29816
83232,29383
84216,29383
84216,29816
83232,29816
" /> 
</g>
<g style="fill:#000000; fill-opacity:1.0; 
stroke:#000000; stroke-width:433.071; stroke-opacity:1; 
stroke-linecap:round; stroke-linejoin:round;">
</g>
<g style="fill:#000000; fill-opacity:0.0; 
stroke:#000000; stroke-width:433.071; stroke-opacity:1; 
stroke-linecap:round; stroke-linejoin:round;">
<path d="M83448 30387
L84000 30387
" />
<path d="M83448 31174
L84000 31174
" />
<path d="M83448 31962
L84000 31962
" />
<path d="M83448 32749
L84000 32749
" />
<path d="M83448 33537
L84000 33537
" />
<path d="M83448 34324
L84000 34324
" />
<path d="M83448 35111
L84000 35111
" />
<path d="M89511 35111
L90062 35111
" />
<path d="M89472 34324
L90023 34324
" />
<path d="M89511 33537
L90062 33537
" />
<path d="M89511 32749
L90062 32749
" />
<path d="M89511 31962
L90062 31962
" />
<path d="M89511 31174
L90062 31174
" />
<path d="M89511 30387
L90062 30387
" />
<path d="M89511 29600
L90062 29600
" />
</g>
<g style="fill:#000000; fill-opacity:0.0; 
stroke:#000000; stroke-width:0; stroke-opacity:1; 
stroke-linecap:round; stroke-linejoin:round;">
</g>
<g style="fill:#000000; fill-opacity:1.0; 
stroke:#000000; stroke-width:0; stroke-opacity:1; 
stroke-linecap:round; stroke-linejoin:round;">
<polyline style="fill-rule:evenodd;"
points="84734,39748
84065,39748
84065,39393
84734,39393
84734,39748
" /> 
<polyline style="fill-rule:evenodd;"
points="84734,38606
84065,38606
84065,38251
84734,38251
84734,38606
" /> 
<polyline style="fill-rule:evenodd;"
points="83734,39748
83065,39748
83065,39393
83734,39393
83734,39748
" /> 
<polyline style="fill-rule:evenodd;"
points="83734,38606
83065,38606
83065,38251
83734,38251
83734,38606
" /> 
</g>
<g style="fill:#000000; fill-opacity:1.0; 
stroke:#000000; stroke-width:157.48; stroke-opacity:1; 
stroke-linecap:round; stroke-linejoin:round;">
</g>
<g style="fill:#000000; fill-opacity:0.0; 
stroke:#000000; stroke-width:157.48; stroke-opacity:1; 
stroke-linecap:round; stroke-linejoin:round;">
<path d="M88679 37470
L88650 37500
" />
<path d="M83400 38429
L83400 37590
" />
<path d="M84400 38429
L84400 37590
" />
<path d="M85800 39000
L85800 38500
" />
<path d="M85400 38100
L85400 37570
" />
<path d="M85800 38500
L85400 38100
" />
<path d="M87350 37400
L87100 37400
" />
<path d="M87100 37400
L86929 37570
" />
<path d="M86929 37570
L86400 37570
" />
<path d="M90600 37470
L90600 39500
" />
<path d="M83000 40000
L88400 40000
" />
<path d="M82800 39800
L83000 40000
" />
<path d="M82800 35600
L82800 39800
" />
<path d="M82800 35600
L83288 35111
" />
<path d="M89000 40000
L88400 40000
" />
<path d="M89000 40000
L89700 40000
" />
<path d="M90100 40000
L89700 40000
" />
<path d="M90600 39500
L90100 40000
" />
<path d="M91200 36900
L91200 37200
" />
<path d="M91200 33170
L91200 36900
" />
<path d="M91200 37200
L90929 37470
" />
<path d="M90929 37470
L90600 37470
" />
<path d="M84000 35111
L83288 35111
" />
<path d="M83400 36409
L83400 36800
" />
<path d="M85400 37200
L85400 37570
" />
<path d="M85200 37000
L85400 37200
" />
<path d="M83600 37000
L85200 37000
" />
<path d="M83400 36800
L83600 37000
" />
<path d="M86400 37570
L85400 37570
" />
<path d="M83400 36409
L83400 36000
" />
<path d="M84000 35400
L84000 35111
" />
<path d="M83400 36000
L84000 35400
" />
<path d="M84400 36409
L84400 32200
" />
<path d="M84400 32200
L84162 31962
" />
<path d="M84162 31962
L84000 31962
" />
<path d="M87800 39000
L87800 38600
" />
<path d="M88100 37000
L88100 30900
" />
<path d="M88100 30900
L88612 30387
" />
<path d="M88612 30387
L89511 30387
" />
<path d="M88100 38300
L88100 37000
" />
<path d="M87800 38600
L88100 38300
" />
<path d="M86800 39000
L86900 39000
" />
<path d="M86900 39000
L87863 38036
" />
<path d="M87863 38036
L87863 30136
" />
<path d="M89511 29600
L88400 29600
" />
<path d="M88400 29600
L87863 30136
" />
<path d="M91200 32029
L91200 32200
" />
<path d="M91200 32200
L91000 32400
" />
<path d="M89511 32749
L90350 32749
" />
<path d="M90700 32400
L90350 32749
" />
<path d="M91000 32400
L90700 32400
" />
<path d="M91070 32029
L91200 32029
" />
<path d="M91200 30600
L91200 32029
" />
<path d="M91200 29600
L91200 29100
" />
<path d="M84000 29200
L84000 29600
" />
<path d="M84400 28800
L84000 29200
" />
<path d="M90900 28800
L84400 28800
" />
<path d="M91200 29100
L90900 28800
" />
<path d="M86400 36429
L86400 30200
" />
<path d="M85800 29600
L84000 29600
" />
<path d="M86400 30200
L85800 29600
" />
</g>
<g style="fill:#000000; fill-opacity:0.0; 
stroke:#000000; stroke-width:314.961; stroke-opacity:1; 
stroke-linecap:round; stroke-linejoin:round;">
<path d="M78600 36500
L78600 30700
" />
<path d="M79012 30287
L80911 30287
" />
<path d="M78600 30700
L79012 30287
" />
<path d="M77600 36500
L77600 30300
" />
<path d="M78400 29500
L80911 29500
" />
<path d="M77600 30300
L78400 29500
" />
<path d="M76600 36500
L76600 35400
" />
<path d="M76211 35011
L75400 35011
" />
<path d="M76600 35400
L76211 35011
" />
</g>
<g style="fill:#000000; fill-opacity:0.0; 
stroke:#000000; stroke-width:157.48; stroke-opacity:1; 
stroke-linecap:round; stroke-linejoin:round;">
<path d="M85400 36429
L85400 31600
" />
<path d="M84974 31174
L84000 31174
" />
<path d="M85400 31600
L84974 31174
" />
<path d="M90600 36329
L90600 36100
" />
<path d="M90337 33537
L90600 33800
" />
<path d="M90600 33800
L90600 36100
" />
<path d="M90337 33537
L89511 33537
" />
<path d="M89511 34324
L88975 34324
" />
<path d="M88929 36329
L89600 36329
" />
<path d="M88600 36000
L88929 36329
" />
<path d="M88600 34700
L88600 36000
" />
<path d="M88975 34324
L88600 34700
" />
</g>
<g style="fill:#000000; fill-opacity:1.0; 
stroke:#000000; stroke-width:59.0551; stroke-opacity:1; 
stroke-linecap:round; stroke-linejoin:round;">
<polyline style="fill-rule:evenodd;"
points="84253,28653
83853,29053
83809,29120
83793,29200
83793,29253
83232,29253
83184,29261
83141,29289
83112,29332
83101,29383
83101,29816
83110,29863
83138,29907
83181,29936
83232,29946
84216,29946
84263,29938
84307,29910
84336,29867
84346,29816
84346,29806
85714,29806
86193,30285
86193,36121
86065,36121
86017,36130
85974,36158
85945,36201
85934,36251
85934,36606
85943,36653
85971,36697
86014,36726
86065,36736
86734,36736
86782,36727
86825,36699
86854,36657
86865,36606
86865,36251
86856,36204
86828,36161
86785,36131
86734,36121
86606,36121
86606,30200
86590,30120
86546,30053
85946,29453
85879,29409
85800,29393
84346,29393
84346,29383
84338,29336
84310,29292
84267,29263
84235,29256
84485,29006
90814,29006
90993,29185
90993,29230
90900,29292
90808,29429
90776,29591
90776,29608
90808,29770
90900,29907
91038,29999
91200,30031
91361,29999
91499,29907
91591,29770
91623,29608
91623,29591
91591,29429
91499,29292
91406,29230
91406,29100
91390,29020
91346,28953
91046,28653
91009,28629
91842,28629
91842,39634
91434,40042
90349,40042
90746,39646
90790,39579
90806,39500
90806,37778
90934,37778
90982,37769
91025,37741
91054,37698
91065,37648
91065,37623
91075,37617
91346,37346
91390,37279
91406,37200
91406,33478
91534,33478
91582,33469
91625,33441
91654,33398
91665,33348
91665,32993
91656,32946
91628,32902
91585,32873
91534,32863
90865,32863
90817,32872
90774,32900
90745,32942
90734,32993
90734,33348
90743,33395
90771,33438
90814,33468
90865,33478
90993,33478
90993,36037
90985,36031
90934,36021
90806,36021
90806,33800
90790,33720
90746,33653
90483,33390
90416,33346
90344,33331
90318,33293
90206,33218
90075,33192
89499,33192
89367,33218
89256,33293
89181,33405
89155,33537
89181,33668
89256,33780
89367,33855
89499,33881
90075,33881
90206,33855
90300,33792
90393,33885
90393,34813
90298,34726
90133,34665
90051,34665
90167,34642
90279,34567
90354,34456
90380,34324
90354,34192
90279,34080
90167,34006
90035,33979
89460,33979
89328,34006
89216,34080
89192,34117
88975,34117
88896,34133
88829,34178
88453,34553
88409,34620
88393,34700
88393,36000
88409,36079
88453,36146
88782,36475
88850,36520
88929,36535
89140,36535
89143,36553
89171,36597
89214,36626
89265,36636
89934,36636
89982,36627
90025,36599
90054,36557
90065,36506
90065,36151
90056,36104
90028,36061
89985,36031
89934,36021
89265,36021
89217,36030
89174,36058
89145,36101
89140,36122
89014,36122
88806,35914
88806,35250
89087,35250
89146,35377
89276,35496
89441,35557
89716,35557
89716,35182
89129,35182
89087,35250
88806,35250
88806,34785
89061,34531
89192,34531
89216,34567
89328,34642
89444,34665
89441,34665
89276,34726
89146,34846
89087,34973
89129,35041
89716,35041
89716,35033
89857,35033
89857,35041
89865,35041
89865,35182
89857,35182
89857,35557
90133,35557
90298,35496
90393,35409
90393,36021
90265,36021
90217,36030
90174,36058
90145,36101
90134,36151
90134,36506
90143,36553
90171,36597
90214,36626
90265,36636
90934,36636
90982,36627
90993,36620
90993,37114
90942,37164
90934,37163
90265,37163
90217,37172
90174,37200
90155,37227
90129,37163
90064,37099
89980,37064
89727,37064
89670,37121
89670,37400
89678,37400
89678,37541
89670,37541
89670,37820
89727,37877
89980,37877
90064,37842
90129,37778
90155,37714
90171,37738
90214,37768
90265,37778
90393,37778
90393,39414
90014,39793
84964,39793
84964,39698
84906,39641
84470,39641
84470,39649
84329,39649
84329,39641
83470,39641
83470,39649
83329,39649
83329,39641
83321,39641
83321,39500
83329,39500
83329,39221
83470,39221
83470,39500
84329,39500
84329,39221
84470,39221
84470,39500
84906,39500
84964,39443
84964,39348
84929,39263
84864,39199
84780,39164
84527,39164
84470,39221
84329,39221
84272,39164
84019,39164
83935,39199
83900,39234
83864,39199
83780,39164
83527,39164
83470,39221
83329,39221
83272,39164
83019,39164
83006,39169
83006,38721
83014,38726
83065,38736
83734,38736
83782,38727
83825,38699
83854,38657
83865,38606
83865,38251
83934,38251
83934,38606
83943,38653
83971,38697
84014,38726
84065,38736
84734,38736
84782,38727
84825,38699
84854,38657
84865,38606
84865,38251
84856,38204
84828,38161
84785,38131
84734,38121
84606,38121
84606,37917
84714,37917
84762,37908
84805,37880
84835,37838
84845,37787
84845,37393
84836,37346
84808,37302
84765,37273
84714,37263
84085,37263
84037,37272
83994,37300
83964,37342
83954,37393
83954,37787
83963,37834
83991,37878
84034,37907
84085,37917
84193,37917
84193,38121
84065,38121
84017,38130
83974,38158
83945,38201
83934,38251
83865,38251
83856,38204
83828,38161
83785,38131
83734,38121
83606,38121
83606,37917
83714,37917
83762,37908
83805,37880
83835,37838
83845,37787
83845,37393
83836,37346
83808,37302
83765,37273
83714,37263
83085,37263
83037,37272
83006,37292
83006,36707
83034,36726
83085,36736
83193,36736
83193,36800
83209,36879
83253,36946
83453,37146
83520,37190
83600,37206
85114,37206
85170,37263
85065,37263
85017,37272
84974,37300
84945,37342
84934,37393
84934,37748
84943,37795
84971,37838
85014,37868
85065,37878
85193,37878
85193,38100
85209,38179
85253,38246
85477,38469
85460,38469
85412,38478
85369,38506
85339,38549
85329,38600
85329,39400
85338,39447
85366,39490
85409,39520
85460,39530
86140,39530
86187,39521
86230,39493
86260,39450
86270,39400
86270,38600
86261,38552
86233,38509
86190,38479
86140,38469
86000,38469
85990,38420
85946,38353
85606,38014
85606,37878
85734,37878
85782,37869
85825,37841
85854,37798
85859,37777
85940,37777
85943,37795
85971,37838
86014,37868
86065,37878
86734,37878
86782,37869
86825,37841
86854,37798
86859,37777
86919,37777
86919,37800
86928,37847
86956,37890
86999,37920
87050,37930
87650,37930
87657,37929
87657,37950
87057,38549
86979,38497
86800,38461
86620,38497
86469,38598
86367,38750
86332,38929
86332,39070
86367,39249
86469,39401
86620,39502
86800,39538
86979,39502
87130,39401
87232,39249
87267,39070
87267,38929
87267,38925
87349,38843
87332,38929
87332,39070
87367,39249
87469,39401
87620,39502
87800,39538
87979,39502
88130,39401
88232,39249
88246,39177
88320,39366
88474,39526
88641,39607
88729,39567
88729,39070
88870,39070
88870,39567
88958,39607
89125,39526
89279,39366
89360,39159
89311,39070
88870,39070
88729,39070
88721,39070
88721,38929
88729,38929
88729,38432
88870,38432
88870,38929
89311,38929
89360,38840
89279,38633
89125,38473
88958,38392
88870,38432
88729,38432
88641,38392
88474,38473
88320,38633
88246,38822
88232,38750
88130,38598
88108,38583
88246,38446
88290,38379
88306,38300
88306,38029
88522,38029
88579,37972
88579,37470
88571,37470
88571,37329
88579,37329
88579,36827
88720,36827
88720,37329
88728,37329
88728,37470
88720,37470
88720,37972
88777,38029
88995,38029
89080,37994
89144,37930
89174,37858
89219,37877
89472,37877
89529,37820
89529,37541
89521,37541
89521,37400
89529,37400
89529,37121
89472,37064
89219,37064
89179,37080
89179,36954
89144,36869
89080,36805
88995,36770
88777,36770
88720,36827
88579,36827
88522,36770
88306,36770
88306,32749
89155,32749
89181,32881
89256,32993
89367,33067
89499,33094
90075,33094
90206,33067
90318,32993
90343,32956
90350,32956
90429,32940
90496,32895
90785,32606
91000,32606
91079,32590
91146,32546
91346,32346
91352,32336
91534,32336
91582,32327
91625,32299
91654,32257
91665,32206
91665,31851
91656,31804
91628,31761
91585,31731
91534,31721
91406,31721
91406,31025
91495,31025
91542,31016
91586,30988
91615,30946
91625,30895
91625,30304
91616,30257
91588,30213
91546,30184
91495,30174
90904,30174
90857,30183
90813,30211
90784,30253
90774,30304
90774,30895
90783,30942
90811,30986
90853,31015
90904,31025
90993,31025
90993,31721
90865,31721
90817,31730
90774,31758
90745,31801
90734,31851
90734,32193
90700,32193
90620,32209
90553,32253
90308,32499
90206,32431
90075,32405
89499,32405
89367,32431
89256,32506
89181,32617
89155,32749
88306,32749
88306,31962
89155,31962
89181,32094
89256,32205
89367,32280
89499,32306
90075,32306
90206,32280
90318,32205
90393,32094
90419,31962
90393,31830
90318,31718
90206,31643
90075,31617
89499,31617
89367,31643
89256,31718
89181,31830
89155,31962
88306,31962
88306,31174
89155,31174
89181,31306
89256,31418
89367,31493
89499,31519
90075,31519
90206,31493
90318,31418
90393,31306
90419,31174
90393,31042
90318,30931
90206,30856
90075,30830
89499,30830
89367,30856
89256,30931
89181,31042
89155,31174
88306,31174
88306,30985
88698,30594
89231,30594
89256,30630
89367,30705
89499,30731
90075,30731
90206,30705
90318,30630
90393,30519
90419,30387
90393,30255
90318,30143
90206,30069
90075,30042
89499,30042
89367,30069
89256,30143
89231,30180
88612,30180
88533,30196
88466,30241
88070,30637
88070,30221
88485,29806
89231,29806
89256,29843
89367,29918
89499,29944
90075,29944
90206,29918
90318,29843
90393,29731
90419,29600
90393,29468
90318,29356
90206,29281
90075,29255
89499,29255
89367,29281
89256,29356
89231,29393
88400,29393
88320,29409
88253,29453
87717,29990
87672,30057
87657,30136
87657,36870
87650,36869
87050,36869
87002,36878
86959,36906
86929,36949
86919,37000
86919,37288
86857,37350
86856,37346
86828,37302
86785,37273
86734,37263
86065,37263
86017,37272
85974,37300
85945,37342
85940,37364
85859,37364
85856,37346
85828,37302
85785,37273
85734,37263
85606,37263
85606,37200
85590,37120
85546,37053
85346,36853
85279,36809
85200,36793
83685,36793
83629,36736
83714,36736
83762,36727
83805,36699
83835,36657
83845,36606
83845,36212
83836,36165
83808,36121
83765,36092
83714,36082
83610,36082
84146,35546
84190,35479
84193,35467
84193,36082
84085,36082
84037,36091
83994,36119
83964,36161
83954,36212
83954,36606
83963,36653
83991,36697
84034,36726
84085,36736
84714,36736
84762,36727
84805,36699
84835,36657
84845,36606
84845,36212
84836,36165
84808,36121
84765,36092
84714,36082
84606,36082
84606,32200
84590,32120
84546,32053
84332,31840
84330,31830
84255,31718
84143,31643
84012,31617
83436,31617
83304,31643
83193,31718
83118,31830
83092,31962
83118,32094
83193,32205
83304,32280
83436,32306
84012,32306
84143,32280
84170,32262
84193,32285
84193,32464
84143,32431
84012,32405
83436,32405
83304,32431
83193,32506
83118,32617
83092,32749
83118,32881
83193,32993
83304,33067
83436,33094
84012,33094
84143,33067
84193,33034
84193,33251
84143,33218
84012,33192
83436,33192
83304,33218
83193,33293
83118,33405
83092,33537
83118,33668
83193,33780
83304,33855
83436,33881
84012,33881
84143,33855
84193,33822
84193,34039
84143,34006
84012,33979
83436,33979
83304,34006
83193,34080
83118,34192
83092,34324
83118,34456
83193,34567
83304,34642
83436,34668
84012,34668
84143,34642
84193,34609
84193,34826
84143,34793
84012,34767
83436,34767
83304,34793
83193,34868
83118,34979
83116,34991
82757,35350
82757,31174
83092,31174
83118,31306
83193,31418
83304,31493
83436,31519
84012,31519
84143,31493
84255,31418
84280,31381
84889,31381
85193,31685
85193,36121
85065,36121
85017,36130
84974,36158
84945,36201
84934,36251
84934,36606
84943,36653
84971,36697
85014,36726
85065,36736
85734,36736
85782,36727
85825,36699
85854,36657
85865,36606
85865,36251
85856,36204
85828,36161
85785,36131
85734,36121
85606,36121
85606,31600
85590,31520
85546,31453
85120,31028
85053,30983
84974,30968
84280,30968
84255,30931
84143,30856
84012,30830
83436,30830
83304,30856
83193,30931
83118,31042
83092,31174
82757,31174
82757,30387
83092,30387
83118,30519
83193,30630
83304,30705
83436,30731
84012,30731
84143,30705
84255,30630
84330,30519
84356,30387
84330,30255
84255,30143
84143,30069
84012,30042
83436,30042
83304,30069
83193,30143
83118,30255
83092,30387
82757,30387
82757,28629
84290,28629
84253,28653
" /> 
<polyline style="fill-rule:evenodd;"
points="78308,29232
78290,29236
78198,29298
77398,30098
77336,30190
77336,30190
77314,30300
77314,36068
77269,36098
77167,36250
77132,36429
77132,36570
77167,36749
77269,36901
77420,37002
77600,37038
77779,37002
77930,36901
78032,36749
78067,36570
78067,36429
78032,36250
77930,36098
77885,36068
77885,30418
78518,29785
80718,29785
80767,29818
80899,29844
81475,29844
81606,29818
81718,29743
81742,29707
81742,30079
81718,30043
81606,29969
81475,29942
80899,29942
80767,29969
80718,30001
79012,30001
78903,30023
78810,30085
78398,30498
78336,30590
78336,30590
78314,30700
78314,36068
78269,36098
78167,36250
78132,36429
78132,36570
78167,36749
78269,36901
78420,37002
78600,37038
78779,37002
78930,36901
79032,36749
79046,36677
79120,36866
79274,37026
79441,37107
79529,37067
79529,36570
79670,36570
79670,37067
79758,37107
79925,37026
80079,36866
80160,36659
80111,36570
79670,36570
79529,36570
79521,36570
79521,36429
79529,36429
79529,35932
79670,35932
79670,36429
80111,36429
80160,36340
80079,36133
79925,35973
79758,35892
79670,35932
79529,35932
79441,35892
79274,35973
79120,36133
79046,36322
79032,36250
78930,36098
78885,36068
78885,35150
80487,35150
80546,35277
80676,35396
80841,35457
81116,35457
81116,35082
80529,35082
80487,35150
78885,35150
78885,30818
79130,30572
80718,30572
80767,30605
80899,30631
81475,30631
81606,30605
81718,30530
81742,30495
81742,30866
81718,30831
81606,30756
81475,30730
80899,30730
80767,30756
80656,30831
80581,30942
80555,31074
80581,31206
80656,31318
80767,31393
80899,31419
81475,31419
81606,31393
81718,31318
81742,31282
81742,31654
81718,31618
81606,31543
81475,31517
80899,31517
80767,31543
80656,31618
80581,31730
80555,31862
80581,31994
80656,32105
80767,32180
80899,32206
81475,32206
81606,32180
81718,32105
81742,32070
81742,32441
81718,32406
81606,32331
81475,32305
80899,32305
80767,32331
80656,32406
80581,32517
80555,32649
80581,32781
80656,32893
80767,32967
80899,32994
81475,32994
81606,32967
81718,32893
81742,32857
81742,33229
81718,33193
81606,33118
81475,33092
80899,33092
80767,33118
80656,33193
80581,33305
80555,33437
80581,33568
80656,33680
80767,33755
80899,33781
81475,33781
81606,33755
81718,33680
81742,33644
81742,34075
81679,33980
81567,33906
81435,33879
80860,33879
80728,33906
80616,33980
80542,34092
80515,34224
80542,34356
80616,34467
80728,34542
80844,34565
80841,34565
80676,34626
80546,34746
80487,34873
80529,34941
81116,34941
81116,34933
81257,34933
81257,34941
81265,34941
81265,35082
81257,35082
81257,35457
81533,35457
81698,35396
81742,35356
81742,37142
74557,37142
74557,35202
74593,35255
74704,35330
74836,35356
75412,35356
75543,35330
75593,35297
76093,35297
76314,35518
76314,35969
76260,35969
76212,35978
76169,36006
76139,36049
76129,36100
76129,36900
76138,36947
76166,36990
76209,37020
76260,37030
76940,37030
76987,37021
77030,36993
77060,36950
77070,36900
77070,36100
77061,36052
77033,36009
76990,35979
76940,35969
76885,35969
76885,35400
76863,35290
76863,35290
76801,35198
76413,34809
76321,34748
76302,34744
76211,34726
75593,34726
75543,34693
75412,34667
74836,34667
74704,34693
74593,34768
74557,34821
74557,34414
74593,34467
74704,34542
74836,34568
75412,34568
75543,34542
75655,34467
75730,34356
75756,34224
75730,34092
75655,33980
75543,33906
75412,33879
74836,33879
74704,33906
74593,33980
74557,34034
74557,33627
74593,33680
74704,33755
74836,33781
75412,33781
75543,33755
75655,33680
75730,33568
75756,33437
75730,33305
75655,33193
75543,33118
75412,33092
74836,33092
74704,33118
74593,33193
74557,33246
74557,32839
74593,32893
74704,32967
74836,32994
75412,32994
75543,32967
75655,32893
75730,32781
75756,32649
75730,32517
75655,32406
75543,32331
75412,32305
74836,32305
74704,32331
74593,32406
74557,32459
74557,32052
74593,32105
74704,32180
74836,32206
75412,32206
75543,32180
75655,32105
75730,31994
75756,31862
75730,31730
75655,31618
75543,31543
75412,31517
74836,31517
74704,31543
74593,31618
74557,31671
74557,31265
74593,31318
74704,31393
74836,31419
75412,31419
75543,31393
75655,31318
75730,31206
75756,31074
75730,30942
75655,30831
75543,30756
75412,30730
74836,30730
74704,30756
74593,30831
74557,30884
74557,30477
74593,30530
74704,30605
74836,30631
75412,30631
75543,30605
75655,30530
75730,30419
75756,30287
75730,30155
75655,30043
75543,29969
75412,29942
74836,29942
74704,29969
74593,30043
74557,30097
74557,29820
74581,29836
74632,29846
75616,29846
75663,29838
75707,29810
75736,29767
75746,29716
75746,29283
75738,29236
75733,29229
78324,29229
78308,29232
" /> 
</g> 
</svg>
