<?xml version="1.0" standalone="no"?>
 <!DOCTYPE svg PUBLIC "-//W3C//DTD SVG 1.1//EN" 
 "http://www.w3.org/Graphics/SVG/1.1/DTD/svg11.dtd"> 
<svg xmlns="http://www.w3.org/2000/svg" version="1.1" 
    width="29.7002cm" height="21.0007cm" viewBox="0 0 116930 82680 ">
<title>SVG Picture created as espAntena-F.SilkS.svg date 2018/05/08 09:32:43 </title>
  <desc>Picture generated by PCBNEW </desc>
<g style="fill:#000000; fill-opacity:1;stroke:#000000; stroke-opacity:1;
stroke-linecap:round; stroke-linejoin:round; "
 transform="translate(0 0) scale(1 1)">
</g>
<g style="fill:#000000; fill-opacity:0.0; 
stroke:#000000; stroke-width:-0.000393701; stroke-opacity:1; 
stroke-linecap:round; stroke-linejoin:round;">
</g>
<g style="fill:#000000; fill-opacity:0.0; 
stroke:#000000; stroke-width:59.0551; stroke-opacity:1; 
stroke-linecap:round; stroke-linejoin:round;">
<path d="M86300 38500
L89300 38500
" />
<path d="M86300 39500
L89300 39500
" />
<path d="M85189 39610
L85800 39610
" />
<path d="M89300 38500
L89300 39500
" />
<path d="M86300 39500
L86300 38500
" />
<path d="M85800 38389
L85189 38389
" />
<path d="M85189 38389
L85189 39610
" />
<path d="M91810 31210
L91810 30600
" />
<path d="M91700 29100
L91700 30100
" />
<path d="M91700 30100
L90700 30100
" />
<path d="M90589 30600
L90589 31210
" />
<path d="M90589 31210
L91810 31210
" />
<path d="M90700 30100
L90700 29100
" />
<path d="M90700 29100
L91700 29100
" />
<path d="M87000 36950
L86900 36950
" />
<path d="M86900 36950
L86900 37850
" />
<path d="M86900 37850
L87000 37850
" />
<path d="M87000 36950
L87000 37850
" />
<path d="M87000 37850
L87650 37850
" />
<path d="M88350 36950
L89000 36950
" />
<path d="M89000 36950
L89000 37850
" />
<path d="M89000 37850
L88350 37850
" />
<path d="M87650 36950
L87000 36950
" />
<path d="M82996 36606
L82996 37393
" />
<path d="M83803 37393
L83803 36606
" />
<path d="M83996 36606
L83996 37393
" />
<path d="M84803 37393
L84803 36606
" />
<path d="M77100 36000
L80100 36000
" />
<path d="M77100 37000
L80100 37000
" />
<path d="M75989 37110
L76600 37110
" />
<path d="M80100 36000
L80100 37000
" />
<path d="M77100 37000
L77100 36000
" />
<path d="M76600 35889
L75989 35889
" />
<path d="M75989 35889
L75989 37110
" />
<path d="M85976 37393
L85976 36606
" />
<path d="M86823 36606
L86823 37393
" />
<path d="M84976 37393
L84976 36606
" />
<path d="M85823 36606
L85823 37393
" />
<path d="M91623 32206
L91623 32993
" />
<path d="M90776 32993
L90776 32206
" />
<path d="M91023 36506
L91023 37293
" />
<path d="M90176 37293
L90176 36506
" />
<path d="M90023 36506
L90023 37293
" />
<path d="M89176 37293
L89176 36506
" />
</g>
<g style="fill:#000000; fill-opacity:0.0; 
stroke:#000000; stroke-width:60; stroke-opacity:1; 
stroke-linecap:round; stroke-linejoin:round;">
<path d="M75000 35350
L75000 35650
" />
<path d="M75000 35650
L81300 35650
" />
<path d="M81300 35650
L81300 35350
" />
<path d="M83600 35450
L83600 35750
" />
<path d="M83600 35750
L89900 35750
" />
<path d="M89900 35750
L89900 35450
" />
</g>
<g style="fill:#000000; fill-opacity:0.0; 
stroke:#000000; stroke-width:59.0551; stroke-opacity:1; 
stroke-linecap:round; stroke-linejoin:round;">
<path d="M84823 38606
L84823 39393
" />
<path d="M83976 39393
L83976 38606
" />
<path d="M83823 38606
L83823 39393
" />
<path d="M82976 39393
L82976 38606
" />
<path d="M85509 38178
L85509 37784
L85659 37784
L85696 37803
L85715 37821
L85734 37859
L85734 37915
L85715 37953
L85696 37971
L85659 37990
L85509 37990
" />
<path d="M86109 38178
L85884 38178
" />
<path d="M85996 38178
L85996 37784
L85959 37840
L85921 37878
L85884 37896
" />
<path d="M89370 30890
L88976 30890
L88976 30740
L88995 30703
L89014 30684
L89051 30665
L89107 30665
L89145 30684
L89164 30703
L89182 30740
L89182 30890
" />
<path d="M89014 30515
L88995 30496
L88976 30459
L88976 30365
L88995 30328
L89014 30309
L89051 30290
L89089 30290
L89145 30309
L89370 30534
L89370 30290
" />
<path d="M88140 37465
L88159 37484
L88178 37540
L88178 37578
L88159 37634
L88121 37671
L88084 37690
L88009 37709
L87953 37709
L87878 37690
L87840 37671
L87803 37634
L87784 37578
L87784 37540
L87803 37484
L87821 37465
" />
<path d="M88178 37090
L88178 37315
" />
<path d="M88178 37203
L87784 37203
L87840 37240
L87878 37278
L87896 37315
" />
<path d="M83109 37178
L83109 36784
L83203 36784
L83259 36803
L83296 36840
L83315 36878
L83334 36953
L83334 37009
L83315 37084
L83296 37121
L83259 37159
L83203 37178
L83109 37178
" />
<path d="M83709 37178
L83484 37178
" />
<path d="M83596 37178
L83596 36784
L83559 36840
L83521 36878
L83484 36896
" />
<path d="M84109 37178
L84109 36784
L84203 36784
L84259 36803
L84296 36840
L84315 36878
L84334 36953
L84334 37009
L84315 37084
L84296 37121
L84259 37159
L84203 37178
L84109 37178
" />
<path d="M84484 36821
L84503 36803
L84540 36784
L84634 36784
L84671 36803
L84690 36821
L84709 36859
L84709 36896
L84690 36953
L84465 37178
L84709 37178
" />
<path d="M76309 34670
L76309 34276
L76459 34276
L76496 34295
L76515 34314
L76534 34351
L76534 34407
L76515 34445
L76496 34464
L76459 34482
L76309 34482
" />
<path d="M76665 34276
L76909 34276
L76778 34426
L76834 34426
L76871 34445
L76890 34464
L76909 34501
L76909 34595
L76890 34632
L76871 34651
L76834 34670
L76721 34670
L76684 34651
L76665 34632
" />
<path d="M86334 37178
L86203 36990
" />
<path d="M86109 37178
L86109 36784
L86259 36784
L86296 36803
L86315 36821
L86334 36859
L86334 36915
L86315 36953
L86296 36971
L86259 36990
L86109 36990
" />
<path d="M86709 37178
L86484 37178
" />
<path d="M86596 37178
L86596 36784
L86559 36840
L86521 36878
L86484 36896
" />
<path d="M85334 37178
L85203 36990
" />
<path d="M85109 37178
L85109 36784
L85259 36784
L85296 36803
L85315 36821
L85334 36859
L85334 36915
L85315 36953
L85296 36971
L85259 36990
L85109 36990
" />
<path d="M85484 36821
L85503 36803
L85540 36784
L85634 36784
L85671 36803
L85690 36821
L85709 36859
L85709 36896
L85690 36953
L85465 37178
L85709 37178
" />
<path d="M91134 32778
L91003 32590
" />
<path d="M90909 32778
L90909 32384
L91059 32384
L91096 32403
L91115 32421
L91134 32459
L91134 32515
L91115 32553
L91096 32571
L91059 32590
L90909 32590
" />
<path d="M91265 32384
L91509 32384
L91378 32534
L91434 32534
L91471 32553
L91490 32571
L91509 32609
L91509 32703
L91490 32740
L91471 32759
L91434 32778
L91321 32778
L91284 32759
L91265 32740
" />
<path d="M90534 37078
L90403 36890
" />
<path d="M90309 37078
L90309 36684
L90459 36684
L90496 36703
L90515 36721
L90534 36759
L90534 36815
L90515 36853
L90496 36871
L90459 36890
L90309 36890
" />
<path d="M90871 36815
L90871 37078
" />
<path d="M90778 36665
L90684 36946
L90928 36946
" />
<path d="M89534 37078
L89403 36890
" />
<path d="M89309 37078
L89309 36684
L89459 36684
L89496 36703
L89515 36721
L89534 36759
L89534 36815
L89515 36853
L89496 36871
L89459 36890
L89309 36890
" />
<path d="M89890 36684
L89703 36684
L89684 36871
L89703 36853
L89740 36834
L89834 36834
L89871 36853
L89890 36871
L89909 36909
L89909 37003
L89890 37040
L89871 37059
L89834 37078
L89740 37078
L89703 37059
L89684 37040
" />
<path d="M77900 28284
L77900 28603
L77918 28640
L77937 28659
L77975 28678
L78050 28678
L78087 28659
L78106 28640
L78125 28603
L78125 28284
" />
<path d="M78293 28321
L78312 28303
L78349 28284
L78443 28284
L78481 28303
L78499 28321
L78518 28359
L78518 28396
L78499 28453
L78274 28678
L78518 28678
" />
<path d="M86200 30384
L86200 30703
L86218 30740
L86237 30759
L86275 30778
L86350 30778
L86387 30759
L86406 30740
L86425 30703
L86425 30384
" />
<path d="M86818 30778
L86593 30778
" />
<path d="M86706 30778
L86706 30384
L86668 30440
L86631 30478
L86593 30496
" />
<path d="M85021 39871
L85003 39853
L84984 39815
L84984 39721
L85003 39684
L85021 39665
L85059 39646
L85096 39646
L85153 39665
L85378 39890
L85378 39646
" />
<path d="M85021 39496
L85003 39478
L84984 39440
L84984 39346
L85003 39309
L85021 39290
L85059 39271
L85096 39271
L85153 39290
L85378 39515
L85378 39271
" />
<path d="M84984 39028
L84984 38990
L85003 38953
L85021 38934
L85059 38915
L85134 38896
L85228 38896
L85303 38915
L85340 38934
L85359 38953
L85378 38990
L85378 39028
L85359 39065
L85340 39084
L85303 39103
L85228 39121
L85134 39121
L85059 39103
L85021 39084
L85003 39065
L84984 39028
" />
<path d="M85378 38503
L85190 38634
" />
<path d="M85378 38728
L84984 38728
L84984 38578
L85003 38540
L85021 38521
L85059 38503
L85115 38503
L85153 38521
L85171 38540
L85190 38578
L85190 38728
" />
<path d="M85021 38353
L85003 38334
L84984 38296
L84984 38203
L85003 38165
L85021 38146
L85059 38128
L85096 38128
L85153 38146
L85378 38371
L85378 38128
" />
<path d="M83028 38821
L83046 38803
L83084 38784
L83178 38784
L83215 38803
L83234 38821
L83253 38859
L83253 38896
L83234 38953
L83009 39178
L83253 39178
" />
<path d="M83403 38821
L83421 38803
L83459 38784
L83553 38784
L83590 38803
L83609 38821
L83628 38859
L83628 38896
L83609 38953
L83384 39178
L83628 39178
" />
<path d="M83871 38784
L83909 38784
L83946 38803
L83965 38821
L83984 38859
L84003 38934
L84003 39028
L83984 39103
L83965 39140
L83946 39159
L83909 39178
L83871 39178
L83834 39159
L83815 39140
L83796 39103
L83778 39028
L83778 38934
L83796 38859
L83815 38821
L83834 38803
L83871 38784
" />
<path d="M84396 39178
L84265 38990
" />
<path d="M84171 39178
L84171 38784
L84321 38784
L84359 38803
L84378 38821
L84396 38859
L84396 38915
L84378 38953
L84359 38971
L84321 38990
L84171 38990
" />
<path d="M84771 39178
L84546 39178
" />
<path d="M84659 39178
L84659 38784
L84621 38840
L84584 38878
L84546 38896
" />
</g> 
</svg>
