<?xml version="1.0" standalone="no"?>
 <!DOCTYPE svg PUBLIC "-//W3C//DTD SVG 1.1//EN" 
 "http://www.w3.org/Graphics/SVG/1.1/DTD/svg11.dtd"> 
<svg xmlns="http://www.w3.org/2000/svg" version="1.1" 
    width="29.7002cm" height="21.0007cm" viewBox="0 0 116930 82680 ">
<title>SVG Picture created as espAntena-Edge.Cuts.svg date 2018/05/08 09:32:43 </title>
  <desc>Picture generated by PCBNEW </desc>
<g style="fill:#000000; fill-opacity:1;stroke:#000000; stroke-opacity:1;
stroke-linecap:round; stroke-linejoin:round; "
 transform="translate(0 0) scale(1 1)">
</g>
<g style="fill:#000000; fill-opacity:0.0; 
stroke:#000000; stroke-width:-0.000393701; stroke-opacity:1; 
stroke-linecap:round; stroke-linejoin:round;">
</g>
<g style="fill:#000000; fill-opacity:0.0; 
stroke:#000000; stroke-width:59.0551; stroke-opacity:1; 
stroke-linecap:round; stroke-linejoin:round;">
<path d="M74400 26000
L74500 26000
" />
<path d="M74400 37300
L74400 26000
" />
<path d="M81900 37300
L74400 37300
" />
<path d="M81900 26000
L81900 37300
" />
<path d="M74500 26000
L81900 26000
" />
<path d="M91600 26000
L83000 26000
" />
<path d="M92000 26400
L91600 26000
" />
<path d="M92000 26500
L92000 26400
" />
<path d="M92000 26700
L92000 26500
" />
<path d="M92000 39700
L92000 26700
" />
<path d="M91500 40200
L92000 39700
" />
<path d="M91400 40200
L91500 40200
" />
<path d="M91300 40200
L91400 40200
" />
<path d="M91100 40200
L91300 40200
" />
<path d="M91000 40200
L91100 40200
" />
<path d="M83500 40200
L91000 40200
" />
<path d="M83000 40200
L83500 40200
" />
<path d="M82600 39800
L83000 40200
" />
<path d="M82600 26400
L82600 39800
" />
<path d="M83000 26000
L82600 26400
" />
</g> 
</svg>
